<?xml version="1.0" standalone="no"?>
<!DOCTYPE svg PUBLIC "-//W3C//DTD SVG 20010904//EN"
 "http://www.w3.org/TR/2001/REC-SVG-20010904/DTD/svg10.dtd">
<svg version="1.0" xmlns="http://www.w3.org/2000/svg"
 width="90.000000pt" height="90.000000pt" viewBox="0 0 90.000000 90.000000"
 preserveAspectRatio="xMidYMid meet">
<metadata>
Created by potrace 1.14, written by Peter Selinger 2001-2017
</metadata>
<g transform="translate(0.000000,90.000000) scale(0.100000,-0.100000)"
fill="#000000" stroke="none">
<path d="M0 445 l0 -395 450 0 450 0 0 395 0 395 -450 0 -450 0 0 -395z m605
278 c-14 -76 -85 -132 -166 -133 -21 0 -50 -10 -69 -22 -99 -68 -105 -185 -12
-256 30 -23 46 -27 100 -27 l66 -1 33 -61 34 -62 -57 -17 c-203 -59 -410 109
-391 316 7 78 36 141 92 194 62 60 132 86 238 87 45 0 91 4 102 9 34 15 37 11
30 -27z m84 -100 c23 -25 40 -51 38 -56 -1 -5 -33 -22 -69 -37 l-67 -29 -6 29
c-11 48 26 140 56 140 4 0 26 -21 48 -47z m65 -139 c3 -9 6 -34 6 -56 0 -40 0
-40 -32 -34 -18 3 -52 8 -75 12 -36 5 -42 10 -45 33 -3 24 2 27 57 43 77 21
82 21 89 2z m-86 -120 c32 -9 61 -20 65 -24 13 -11 -26 -80 -66 -118 l-35 -34
-25 34 c-60 81 -60 82 -35 121 13 20 27 36 31 37 5 0 34 -7 65 -16z"/>
</g>
</svg>
